<?xml version="1.0" standalone="no"?>
<!DOCTYPE svg PUBLIC "-//W3C//DTD SVG 20010904//EN" "http://www.w3.org/TR/2001/REC-SVG-20010904/DTD/svg10.dtd">
<svg version="1.0" xmlns="http://www.w3.org/2000/svg"
     width="512pt" height="512pt" viewBox="0 0 512 512"
     preserveAspectRatio="xMidYMid meet">
  <g transform="translate(0,512) scale(0.1,-0.1)" fill="#000000" stroke="none">
    <!-- CSV file icon (left) -->
    <path d="M640 4480 c-167 -35 -300 -141 -369 -294 -37 -81 -41 -98 -41 -186 0
    -88 4 -105 41 -186 69 -153 202 -259 369 -294 52 -11 688 -14 740 -3 167 35
    300 141 369 294 37 81 41 98 41 186 0 88 -4 105 -41 186 -69 153 -202 259
    -369 294 -52 11 -688 14 -740 3z"/>
    <!-- Arrow -->
    <path d="M2560 3840 l-640 -640 640 -640 640 -640 160 160 160 160 -480 480
    480 480 -160 160 -160 160 -640 -640z"/>
    <!-- Excel icon (right) -->
    <path d="M3840 4480 c-167 -35 -300 -141 -369 -294 -37 -81 -41 -98 -41 -186 0
    -88 4 -105 41 -186 69 -153 202 -259 369 -294 52 -11 688 -14 740 -3 167 35
    300 141 369 294 37 81 41 98 41 186 0 88 -4 105 -41 186 -69 153 -202 259
    -369 294 -52 11 -688 14 -740 3z"/>
  </g>
</svg> 